<svg xmlns="http://www.w3.org/2000/svg" viewBox="0 0 512 512">
  <defs>
    <!-- Main gradient -->
    <linearGradient id="mainGrad" x1="0%" y1="0%" x2="100%" y2="100%">
      <stop offset="0%" style="stop-color:#22c55e"/>
      <stop offset="100%" style="stop-color:#15803d"/>
    </linearGradient>
    
    <!-- Shadow gradient -->
    <linearGradient id="shadowGrad" x1="0%" y1="0%" x2="100%" y2="100%">
      <stop offset="0%" style="stop-color:#166534"/>
      <stop offset="100%" style="stop-color:#14532d"/>
    </linearGradient>
    
    <!-- Glow filter -->
    <filter id="glow" x="-20%" y="-20%" width="140%" height="140%">
      <feGaussianBlur stdDeviation="8" result="blur"/>
      <feComposite in="SourceGraphic" in2="blur" operator="over"/>
    </filter>
    
    <!-- Drop shadow -->
    <filter id="shadow" x="-20%" y="-20%" width="140%" height="140%">
      <feDropShadow dx="0" dy="4" stdDeviation="8" flood-color="#000" flood-opacity="0.3"/>
    </filter>
  </defs>
  
  <!-- Background circle with shadow -->
  <circle cx="256" cy="260" r="230" fill="url(#shadowGrad)" opacity="0.3"/>
  
  <!-- Main background circle -->
  <circle cx="256" cy="256" r="230" fill="url(#mainGrad)" filter="url(#shadow)"/>
  
  <!-- Inner highlight ring -->
  <circle cx="256" cy="256" r="200" fill="none" stroke="rgba(255,255,255,0.1)" stroke-width="4"/>
  
  <!-- Document icon (subtle background element) -->
  <g opacity="0.15" transform="translate(140, 100)">
    <rect x="0" y="0" width="120" height="160" rx="8" fill="white"/>
    <rect x="20" y="25" width="80" height="10" rx="3" fill="url(#mainGrad)"/>
    <rect x="20" y="45" width="60" height="8" rx="2" fill="url(#mainGrad)"/>
    <rect x="20" y="60" width="70" height="8" rx="2" fill="url(#mainGrad)"/>
  </g>
  
  <!-- Main checkmark with bold stroke -->
  <g filter="url(#glow)">
    <path 
      d="M140 270 L210 340 L380 170" 
      stroke="white" 
      stroke-width="48" 
      stroke-linecap="round" 
      stroke-linejoin="round" 
      fill="none"
    />
  </g>
  
  <!-- Subtle inner highlight on checkmark -->
  <path 
    d="M145 265 L210 330 L375 165" 
    stroke="rgba(255,255,255,0.3)" 
    stroke-width="24" 
    stroke-linecap="round" 
    stroke-linejoin="round" 
    fill="none"
  />
  
  <!-- Small sparkle effects -->
  <circle cx="400" cy="140" r="8" fill="white" opacity="0.6"/>
  <circle cx="420" cy="180" r="4" fill="white" opacity="0.4"/>
  <circle cx="120" cy="380" r="6" fill="white" opacity="0.4"/>
</svg>
